<?xml version="1.0" ?><svg height="48" viewBox="0 0 48 48" width="48" xmlns="http://www.w3.org/2000/svg"><defs><style>.cls-1{fill:#fed049;}.cls-2{fill:#d0d7df;}.cls-3{fill:#35dc86;}.cls-4{fill:#474c54;}</style></defs><title/><g data-name="11-Apple" id="_11-Apple"><path class="cls-1" d="M45,26a9,9,0,0,0-9-9H24a8.985,8.985,0,0,0-6.69,15A8.985,8.985,0,0,0,24,47H36a8.985,8.985,0,0,0,6.69-15A8.944,8.944,0,0,0,45,26Z"/><circle class="cls-2" cx="34" cy="4" r="3"/><g data-name="&lt;Group&gt;" id="_Group_"><path class="cls-3" d="M11,32H7c-4,0-4-4-4-4V24a4,4,0,0,1,8,0Z"/><path class="cls-4" d="M45,6a1,1,0,0,0-1,1V26a7.959,7.959,0,0,1-2.054,5.331,1,1,0,0,0,0,1.338A7.985,7.985,0,0,1,36,46H24a7.985,7.985,0,0,1-5.946-13.331,1,1,0,0,0,0-1.338A7.985,7.985,0,0,1,24,18H36a8.042,8.042,0,0,1,3.868,1,1,1,0,0,0,.964-1.752A10.044,10.044,0,0,0,36,16H24a9.974,9.974,0,0,0-8.641,15H11a1,1,0,0,0,0,2h4.359A9.974,9.974,0,0,0,24,48H36a9.985,9.985,0,0,0,7.985-16A9.946,9.946,0,0,0,46,26V7A1,1,0,0,0,45,6Z"/><path class="cls-4" d="M31.905,7.411a1,1,0,1,0,1.05-1.7A2,2,0,1,1,36,4v8a1,1,0,0,0,2,0V4a4,4,0,1,0-6.095,3.411Z"/><path class="cls-4" d="M10,28a1,1,0,0,0,2,0V24A5,5,0,0,0,2,24v4a4.821,4.821,0,0,0,5,5,1,1,0,0,0,0-2,2.852,2.852,0,0,1-3-3V24a3,3,0,0,1,6,0Z"/><path class="cls-4" d="M7,23a1,1,0,0,0-1,1v4a1,1,0,0,0,2,0V24A1,1,0,0,0,7,23Z"/><path class="cls-4" d="M41,15a1,1,0,0,0,1-1V11a1,1,0,0,0-2,0v3A1,1,0,0,0,41,15Z"/><path class="cls-4" d="M45,0a1,1,0,0,0-1,1V3a1,1,0,0,0,2,0V1A1,1,0,0,0,45,0Z"/><path class="cls-4" d="M41,8a1,1,0,0,0,1-1V1a1,1,0,0,0-2,0V7A1,1,0,0,0,41,8Z"/></g></g></svg>